<?xml version="1.0" standalone="no"?>
<!DOCTYPE svg PUBLIC "-//W3C//DTD SVG 20010904//EN"
 "http://www.w3.org/TR/2001/REC-SVG-20010904/DTD/svg10.dtd">
<svg version="1.0" xmlns="http://www.w3.org/2000/svg"
 width="249.000000pt" height="249.000000pt" viewBox="0 0 249.000000 249.000000"
 preserveAspectRatio="xMidYMid meet">
<metadata>
Created by potrace 1.14, written by Peter Selinger 2001-2017
</metadata>
<g transform="translate(0.000000,249.000000) scale(0.100000,-0.100000)"
fill="#000000" stroke="none">
<path d="M775 2390 c-8 -16 -15 -38 -15 -48 0 -23 43 -69 74 -78 25 -7 86 -63
86 -79 0 -11 -46 -25 -155 -45 -85 -16 -163 -39 -210 -61 -22 -11 -50 -19 -61
-19 -12 0 -27 -6 -33 -14 -7 -8 -23 -17 -36 -20 -36 -9 -146 -89 -194 -141
-23 -25 -56 -76 -73 -112 l-31 -67 7 -165 c4 -91 10 -169 13 -174 3 -5 14 1
24 14 l18 24 89 -88 c49 -48 94 -87 99 -87 6 0 30 -16 54 -35 24 -20 68 -42
97 -51 28 -8 52 -20 52 -25 0 -5 9 -9 20 -9 12 0 35 -8 53 -17 33 -17 73 -28
167 -44 136 -24 199 -28 410 -28 211 0 274 4 410 28 94 16 134 27 167 44 18 9
41 17 53 17 11 0 20 4 20 10 0 5 21 15 46 21 26 7 66 27 89 45 24 18 56 39 72
48 15 8 53 40 83 70 63 65 80 70 80 24 0 -42 14 -67 24 -43 10 26 7 70 -5 82
-8 8 -6 14 9 22 31 16 43 66 49 194 5 99 3 124 -12 156 -17 39 -17 105 1 199
7 36 -17 136 -47 190 -23 44 -102 104 -159 121 -25 7 -55 17 -68 22 -37 14
-202 10 -293 -7 -46 -9 -115 -29 -154 -46 -111 -48 -120 -49 -142 -24 -10 12
-31 40 -47 63 -39 58 -84 90 -138 98 -63 9 -105 -1 -114 -28 -12 -39 -6 -81
15 -99 12 -9 21 -19 21 -22 0 -13 -42 -26 -65 -20 -20 5 -26 14 -31 43 -5 32
-68 121 -86 121 -3 0 -23 16 -44 35 -36 33 -42 35 -106 35 -65 0 -68 -1 -83
-30z m1240 -299 c41 -22 75 -57 75 -78 0 -12 -3 -14 -8 -7 -4 6 -21 15 -39 18
-17 4 -37 14 -44 22 -6 8 -19 14 -29 14 -10 0 -42 11 -70 24 -50 23 -51 25
-24 29 42 6 105 -3 139 -22z"/>
<path d="M185 1289 c-11 -16 -7 -60 5 -73 13 -14 24 42 13 67 -8 17 -11 18
-18 6z"/>
<path d="M2217 1213 c-3 -10 -8 -40 -12 -68 -7 -52 -88 -223 -126 -266 -12
-13 -29 -40 -39 -59 -17 -33 -146 -162 -222 -222 -40 -31 -210 -118 -232 -118
-8 0 -17 -4 -21 -9 -3 -6 -27 -13 -53 -17 -25 -4 -61 -13 -79 -20 -48 -20
-361 -19 -410 1 -19 8 -47 15 -62 15 -73 0 -252 80 -351 155 -25 19 -62 46
-82 60 -21 14 -49 42 -63 63 -14 20 -39 55 -56 77 -76 101 -159 256 -169 315
-4 27 -11 36 -29 38 -31 5 -59 -29 -111 -132 l-40 -79 0 -173 0 -173 36 -71
c39 -76 162 -202 220 -226 17 -7 36 -20 44 -28 7 -9 19 -16 26 -16 8 0 34 -16
60 -35 28 -22 57 -35 75 -35 16 0 40 -6 52 -14 12 -8 40 -19 62 -25 22 -5 58
-16 80 -25 22 -8 62 -15 88 -16 29 0 54 -6 63 -15 23 -22 705 -22 728 0 9 9
34 15 63 15 26 1 66 8 88 16 22 9 58 20 80 25 22 6 50 17 62 25 12 8 36 14 52
14 18 0 47 13 75 35 26 19 52 35 60 35 7 0 19 7 26 16 8 8 27 21 44 28 58 24
181 150 220 226 l36 71 0 173 0 173 -39 79 c-22 43 -52 91 -66 107 -14 15 -33
43 -41 62 -16 38 -30 45 -37 18z"/>
</g>
</svg>
